<?xml version="1.0" encoding="utf-8"?>
<!-- Generator: Adobe Illustrator 16.0.0, SVG Export Plug-In . SVG Version: 6.00 Build 0)  -->
<!DOCTYPE svg PUBLIC "-//W3C//DTD SVG 1.1//EN" "http://www.w3.org/Graphics/SVG/1.1/DTD/svg11.dtd">
<svg version="1.1" id="레이어_1" xmlns="http://www.w3.org/2000/svg" xmlns:xlink="http://www.w3.org/1999/xlink" x="0px"
	 y="0px" width="17px" height="17px" viewBox="0 0 17 17" enable-background="new 0 0 17 17" xml:space="preserve">
<g>
	<g>
		<defs>
			<rect id="SVGID_1_" x="0.5" y="0.5" width="16" height="16"/>
		</defs>
		<clipPath id="SVGID_2_">
			<use xlink:href="#SVGID_1_"  overflow="visible"/>
		</clipPath>
		<g clip-path="url(#SVGID_2_)">
			<path fill="none" stroke="#FFFFFF" stroke-width="2" stroke-linecap="round" stroke-linejoin="round" d="M2.24,1.5v4.421
				 M2.24,5.921h4.421 M2.24,5.921l1.946-1.746c1.018-1.016,2.338-1.673,3.762-1.874c1.424-0.2,2.874,0.068,4.133,0.763
				c1.258,0.696,2.256,1.781,2.844,3.094c0.589,1.312,0.732,2.78,0.414,4.182c-0.317,1.402-1.085,2.662-2.183,3.592
				c-1.098,0.928-2.469,1.475-3.903,1.557c-1.435,0.084-2.859-0.303-4.056-1.1C4,13.592,3.094,12.428,2.616,11.072"/>
		</g>
	</g>
</g>
</svg>
