<?xml version="1.0" encoding="utf-8"?>
<!-- Generator: Adobe Illustrator 16.0.0, SVG Export Plug-In . SVG Version: 6.00 Build 0)  -->
<!DOCTYPE svg PUBLIC "-//W3C//DTD SVG 1.1//EN" "http://www.w3.org/Graphics/SVG/1.1/DTD/svg11.dtd">
<svg version="1.1" id="레이어_1" xmlns="http://www.w3.org/2000/svg" xmlns:xlink="http://www.w3.org/1999/xlink" x="0px"
	 y="0px" width="17px" height="17px" viewBox="0 0 17 17" enable-background="new 0 0 17 17" xml:space="preserve">
<g>
	<defs>
		<rect id="SVGID_1_" x="0.5" y="0.5" width="16" height="16"/>
	</defs>
	<clipPath id="SVGID_2_">
		<use xlink:href="#SVGID_1_"  overflow="visible"/>
	</clipPath>
	<g clip-path="url(#SVGID_2_)">
		<path fill="none" stroke="#DF9EB9" stroke-width="2" stroke-linecap="round" stroke-linejoin="round" d="M2.24,1.5v4.421
			 M2.24,5.921h4.421 M2.24,5.921l1.946-1.746c1.018-1.016,2.338-1.673,3.762-1.874c1.424-0.2,2.874,0.068,4.133,0.763
			c1.258,0.696,2.256,1.781,2.844,3.094c0.588,1.312,0.732,2.78,0.414,4.182c-0.318,1.402-1.085,2.662-2.183,3.591
			s-2.468,1.476-3.903,1.558c-1.435,0.084-2.859-0.303-4.056-1.1s-2.103-1.961-2.581-3.316"/>
	</g>
</g>
</svg>
